name processed_emg_signals
nRows=49
nColumns=7
 
endheader
time	RGLTMED	RRF	RADDLONG	RST	RTA	RGM
0.97	0.0295862067432518	0.0514668833004273	0.0218961729275517	0.0164441653022457	0.4901148243884865	0.0330567465395933
0.971	0.0297435713630096	0.0512789113296315	0.021927073899901	0.0162296242015508	0.4895675162791059	0.0329035216002143
0.972	0.0299065681488086	0.0510768618023129	0.0219572542365131	0.0160084826695202	0.4890280578235506	0.0327485712603824
0.973	0.0300752944389944	0.0508610045534644	0.0219865232890613	0.0157809504687104	0.4884957366725033	0.03259217038457
0.974	0.0302498417758418	0.050631623697766	0.022014695409072	0.015547253095953	0.4879698019863182	0.0324345850647873
0.975	0.0304302957090671	0.0503890169690509	0.0220415901591687	0.0153076319218669	0.4874494659405545	0.0322760723818234
0.976	0.0306167356071879	0.0501334950469072	0.0220670325123283	0.0150623443176275	0.4869339052874565	0.0321168801898003
0.977	0.0308092344767533	0.0498653808724379	0.0220908530390489	0.0148116637684583	0.4864222629714004	0.0319572469237038
0.978	0.0310078587894657	0.0495850089552184	0.0221128880823364	0.0145558799732864	0.4859136497954128	0.0317974014294723
0.979	0.031212668317217	0.0492927246733276	0.0221329799204951	0.0142952989300681	0.4854071461350814	0.0316375628162818
0.98	0.0314237159749775	0.0489888835683251	0.0221509769176969	0.0140302430062356	0.4849018036953743	0.0314779403306207
0.981	0.0316410476715131	0.0486738506370041	0.022166733662398	0.0137610509937296	0.4843966473049918	0.0313187332517804
0.982	0.0318647021678587	0.0483479996217462	0.0221801110937327	0.0134880781480488	0.4838906767419115	0.0311601308083903
0.983	0.0320947109435098	0.0480117123012757	0.0221909766161016	0.0132116962107568	0.4833828685826519	0.0310023121155961
0.984	0.0323310980703331	0.0476653777835754	0.0221992042022271	0.0129322934148536	0.4828721780667608	0.0308454461325578
0.985	0.0325738800942007	0.0473093918026282	0.0222046744849897	0.0126502744724511	0.4823575409673473	0.0306896916398754
0.986	0.0328230659243818	0.046944156020572	0.0222072748383822	0.0123660605441317	0.4818378754583761	0.0305351972366468
0.987	0.0330786567307052	0.0465700773367292	0.0222068994478807	0.01208008918945	0.4813120839700246	0.0303821013567583
0.988	0.0333406458484808	0.0461875672048702	0.0222034493705312	0.0117928142979189	0.4807790550242569	0.0302305323040473
0.989	0.0336090186911902	0.0457970409599436	0.0221968325850064	0.0115047059999041	0.4802376650438786	0.0300806083059146
0.99	0.033883752670851	0.0453989171554059	0.0221869640318433	0.011216250556749	0.4796867801294334	0.0299324375849
0.991	0.0341648171260061	0.0449936169122493	0.0221737656440623	0.0109279502295565	0.4791252577992954	0.0297861184477278
0.992	0.0344521732572093	0.0445815632807236	0.0221571663683438	0.0106403231260064	0.4785519486891086	0.0296417393912505
0.993	0.0347457740699207	0.0441631806157666	0.0221371021768706	0.010353903024662	0.4779656982072012	0.0294993792247342
0.994	0.0350455643247863	0.0437388939670503	0.0221135160700299	0.0100692391762353	0.4773653481428159	0.0293591072079335
0.995	0.0353514804954176	0.0433091284845524	0.0220863580700822	0.0097868960813136	0.4767497382242892	0.02922098320443
0.996	0.0356634507339598	0.0428743088404906	0.0220555852059964	0.0095074532440756	0.4761177076250877	0.02908505784976
0.997	0.0359813948448774	0.0424348586684041	0.022021161489623	0.0092315049015673	0.4754680964167186	0.0289513727338459
0.998	0.0363052242674825	0.0419912000200233	0.021983057883425	0.0089596597281668	0.4747997469688896	0.0288199605972922
0.999	0.0366348420677433	0.04154375284051	0.0219412522599471	0.0086925405149012	0.4741115052983766	0.0286908455410238
1.0	0.036970142939914	0.0410929344625265	0.0218957293533027	0.0084307838233361	0.4734022223690891	0.0285640432487916
1.0010000000000001	0.0373110132185147	0.0406391591194912	0.0218464807029279	0.0081750396138062	0.4726707553465074	0.0284395612219497
1.002	0.0376573309011034	0.0401828374783839	0.0217935045900124	0.0079259708477341	0.4719159688102477	0.0283173990259579
1.0030000000000001	0.0380089656822728	0.0397243761923618	0.021736805967049	0.007684253063876	0.471136735929014	0.0281975485480155
1.004	0.0383657789991813	0.0392641774734616	0.021676396381019	0.0074505739283129	0.4703319396029221	0.0280799942652094
1.0050000000000001	0.0387276240889327	0.0388026386855743	0.0216122938907398	0.0072256327581328	0.4695004735789988	0.0279647135225843
1.006	0.0390943460579708	0.038340151957811	0.0215445229789242	0.0070101400187029	0.4686412435463664	0.0278516768204978
1.0070000000000001	0.0394657819636977	0.0378771038183296	0.0214731144594446	0.0068048167946085	0.4677531682179235	0.0277408481105812
1.008	0.0398417609083623	0.037413874848541	0.0213981053803035	0.0066103942342538	0.4668351804048957	0.027632185099588
1.0090000000000001	0.0402221041453025	0.0369508393576585	0.0213195389227283	0.0064276129682521	0.4658862280898991	0.0275256395603796
1.01	0.0406066251975082	0.036488365077421	0.0212374642967999	0.0062572225017248	0.4649052755030429	0.0274211576492496
1.0110000000000001	0.0409951299884154	0.0360268128768457	0.0211519366339741	0.0060999805806927	0.4638913042046186	0.0273186802287582
1.012	0.0413874169847792	0.0355665364967468	0.0210630168768016	0.0059566525327767	0.4628433141771514	0.0272181431952223
1.0130000000000001	0.0417832773513739	0.0351078823037383	0.020970771666137	0.0058280105825151	0.4617603249290025	0.0271194778100288
1.014	0.0421824951172288	0.0346511890633668	0.0208752732260527	0.0057148331416103	0.4606413766112702	0.0270226110339175
1.0150000000000001	0.0425848473530136	0.0341967877319666	0.0207765992467	0.0056179040745456	0.4594855311490633	0.0269274658634309
1.016	0.0429901043591005	0.0337450012667815	0.0206748327652333	0.0055380119400142	0.4582918733872865	0.0268339616687535
1.0170000000000001	0.0433980298637588	0.0332961444538582	0.020570062044948	0.0054759492086127	0.4570595122501216	0.026742014532168
1.018	0.0438083812307963	0.032850523753192	0.0204623804526694	0.0054325114573539	0.4557875819122977	0.0266515375863135
